#N canvas 223 104 1055 706 10;
#X obj 32 39 inlet;
#X obj 68 39 inlet;
#X obj 104 39 inlet;
#X obj 140 39 inlet;
#X obj 896 661 outlet~;
#X obj 950 661 outlet~;
#X text 37 19 RPM;
#X text 65 19 Speed;
#X text 99 19 Braking;
#X text 144 20 Gear;
